<svg width="25" height="24" viewBox="0 0 25 24" fill="none" xmlns="http://www.w3.org/2000/svg">
<path d="M4.64913 23.6034C9.67021 24.1322 14.6925 24.1322 19.7136 23.6034C21.7597 23.369 23.7231 21.4359 23.9602 19.4201C24.4969 14.4738 24.4969 9.52624 23.9602 4.57991C23.7222 2.56423 21.7598 0.631059 19.7136 0.396571C14.6925 -0.13219 9.67021 -0.13219 4.64913 0.396571C2.60203 0.629079 0.639622 2.56226 0.402565 4.57895C-0.134188 9.52528 -0.134188 14.4728 0.402565 19.4191C0.640489 21.4348 2.60288 23.368 4.64913 23.6025V23.6034ZM5.93487 8.43036C5.20966 7.71595 5.20966 6.55904 5.93487 5.84475C6.66007 5.13128 7.83447 5.13035 8.55955 5.84475L12.1827 9.41391L15.8058 5.84475C16.531 5.13035 17.7054 5.13035 18.4304 5.84475C19.1547 6.55916 19.1556 7.71607 18.4304 8.43036L14.8073 11.9995L18.4304 15.5687C19.1556 16.2831 19.1556 17.44 18.4304 18.1543C18.0678 18.5115 17.5929 18.6896 17.118 18.6896C16.6432 18.6896 16.1683 18.5115 15.8057 18.1543L12.1826 14.5851L8.55945 18.1543C8.19685 18.5115 7.72196 18.6896 7.24706 18.6896C6.77217 18.6896 6.29727 18.5115 5.93467 18.1543C5.20947 17.4399 5.20947 16.283 5.93467 15.5687L9.55777 11.9995L5.93487 8.43036Z" fill="#CBCBCB"/>
</svg>
