<svg width="25" height="25" viewBox="0 0 25 25" fill="none" xmlns="http://www.w3.org/2000/svg">
<path d="M5.33772 24.331C10.284 24.8597 15.2316 24.8597 20.1779 24.331C22.1936 24.0966 24.1277 22.1634 24.3612 20.1476C24.89 15.2013 24.89 10.2538 24.3612 5.30745C24.1269 3.29177 22.1937 1.3586 20.1779 1.12411C15.2316 0.595349 10.284 0.595349 5.33772 1.12411C3.3211 1.35662 1.38791 3.2898 1.15438 5.30649C0.625622 10.2528 0.625622 15.2003 1.15438 20.1467C1.38877 22.1624 3.32194 24.0955 5.33772 24.33V24.331ZM5.61618 10.9234C6.36808 10.2493 7.52312 10.3121 8.19819 11.064L10.9583 14.1409L17.3514 7.36167C18.0442 6.62664 19.2011 6.5929 19.9353 7.28572C20.6703 7.97856 20.7041 9.13547 20.0112 9.86965L12.2542 18.0954C11.9092 18.462 11.4273 18.6692 10.9248 18.6692H10.9023C10.3904 18.6626 9.90567 18.4423 9.56346 18.0617L5.47589 13.5054C4.8018 12.7535 4.86427 11.5985 5.61618 10.9234Z" fill="#246D6D"/>
</svg>
